# xmcd CD database file
#
# Track frame offsets:
#	150
#	19312
#	38474
#	53588
#	71925
#	88575
#	103407
#	123638
#	141928
#	159274
#
# Disc length: 2330 seconds
#
# Revision: 0
# Processed by: cddbd v1.5.1PL0 Copyright (c) Steve Scherf et al.
# Submitted via: CDex 1.51
#
DISCID=8809180a
DTITLE=Suzanne Ciani - Ocean Avenue
DYEAR=1999
DGENRE=New Age
TTITLE0=Ocean Avenue
TTITLE1=If I Could
TTITLE2=Yang Ming Shen
TTITLE3=I Believe In Love
TTITLE4=Soaring
TTITLE5=The Enchantress
TTITLE6=La Mer
TTITLE7=Waltz For Julia
TTITLE8=Turning (instrumental)
TTITLE9=Midnight Rendezvous
EXTD=YEAR: 1999
EXTT0=
EXTT1=
EXTT2=
EXTT3=
EXTT4=
EXTT5=
EXTT6=
EXTT7=
EXTT8=
EXTT9=
PLAYORDER=
